<svg xmlns="http://www.w3.org/2000/svg" xmlns:xlink="http://www.w3.org/1999/xlink" width="1920" zoomAndPan="magnify" viewBox="0 0 1440 809.999993" height="1080" preserveAspectRatio="xMidYMid meet" version="1.0"><defs><filter x="0%" y="0%" width="100%" height="100%" id="fab91695a1"><feColorMatrix values="0 0 0 0 1 0 0 0 0 1 0 0 0 0 1 0 0 0 1 0" color-interpolation-filters="sRGB"/></filter><g/><mask id="44cdcc652c"><g filter="url(#fab91695a1)"><rect x="-144" width="1728" fill="#000000" y="-80.999999" height="971.999992" fill-opacity="0.47"/></g></mask><clipPath id="831d5c5c68"><rect x="0" width="1088" y="0" height="247"/></clipPath></defs><g mask="url(#44cdcc652c)"><g transform="matrix(1, 0, 0, 1, 180, 281)"><g clip-path="url(#831d5c5c68)"><g fill="#000000" fill-opacity="1"><g transform="translate(3.781789, 207.152612)"><g><path d="M 37.171875 -128.5625 C 39.640625 -128.425781 41.691406 -127.332031 43.328125 -125.28125 C 48.671875 -124.59375 53.769531 -122.535156 58.625 -119.109375 C 63.488281 -115.691406 68.007812 -111.347656 72.1875 -106.078125 C 76.363281 -100.804688 79.988281 -95.085938 83.0625 -88.921875 C 86.144531 -82.765625 88.539062 -76.535156 90.25 -70.234375 C 91.96875 -63.941406 92.828125 -58.125 92.828125 -52.78125 C 92.828125 -46.34375 91.660156 -39.835938 89.328125 -33.265625 C 87.003906 -26.691406 83.6875 -20.664062 79.375 -15.1875 C 75.0625 -9.71875 69.859375 -5.335938 63.765625 -2.046875 C 57.671875 1.234375 50.859375 2.875 43.328125 2.875 C 34.984375 2.875 27.96875 0.957031 22.28125 -2.875 C 16.601562 -6.707031 12.015625 -11.738281 8.515625 -17.96875 C 5.023438 -24.195312 2.492188 -31.007812 0.921875 -38.40625 C -0.648438 -45.800781 -1.4375 -53.125 -1.4375 -60.375 C -1.4375 -65.582031 -0.988281 -71.234375 -0.09375 -77.328125 C 0.789062 -83.421875 2.191406 -89.476562 4.109375 -95.5 C 6.023438 -101.519531 8.488281 -107.03125 11.5 -112.03125 C 14.507812 -117.03125 18.132812 -121.035156 22.375 -124.046875 C 26.625 -127.054688 31.554688 -128.5625 37.171875 -128.5625 Z M 30.390625 -107.203125 C 29.296875 -107.203125 27.925781 -106.347656 26.28125 -104.640625 C 24.644531 -102.929688 23.207031 -99.847656 21.96875 -95.390625 C 20.738281 -90.941406 20.125 -84.613281 20.125 -76.40625 C 20.125 -69.550781 20.804688 -62.800781 22.171875 -56.15625 C 23.546875 -49.519531 25.703125 -43.53125 28.640625 -38.1875 C 31.585938 -32.851562 35.351562 -28.578125 39.9375 -25.359375 C 44.53125 -22.140625 50.113281 -20.53125 56.6875 -20.53125 C 60.101562 -20.53125 62.734375 -21.523438 64.578125 -23.515625 C 66.429688 -25.503906 67.734375 -28.003906 68.484375 -31.015625 C 69.242188 -34.023438 69.625 -37.035156 69.625 -40.046875 C 69.625 -45.523438 68.765625 -51.34375 67.046875 -57.5 C 65.335938 -63.664062 63.046875 -69.691406 60.171875 -75.578125 C 57.296875 -81.460938 54.113281 -86.765625 50.625 -91.484375 C 47.132812 -96.210938 43.640625 -100.015625 40.140625 -102.890625 C 36.648438 -105.765625 33.398438 -107.203125 30.390625 -107.203125 Z M 29.984375 -162.046875 C 31.898438 -162.046875 33.847656 -161.53125 35.828125 -160.5 C 37.816406 -159.46875 39.492188 -158.269531 40.859375 -156.90625 C 42.234375 -155.539062 42.921875 -154.304688 42.921875 -153.203125 C 42.921875 -150.878906 41.859375 -148.175781 39.734375 -145.09375 C 37.617188 -142.007812 35.019531 -138.992188 31.9375 -136.046875 C 28.851562 -133.109375 25.875 -130.644531 23 -128.65625 C 20.125 -126.675781 17.863281 -125.6875 16.21875 -125.6875 C 14.445312 -125.6875 12.359375 -126.367188 9.953125 -127.734375 C 7.554688 -129.109375 5.539062 -130.476562 3.90625 -131.84375 C 3.351562 -132.257812 2.734375 -132.878906 2.046875 -133.703125 C 1.367188 -134.523438 1.03125 -135.207031 1.03125 -135.75 C 1.03125 -137.53125 1.75 -139.242188 3.1875 -140.890625 C 4.625 -142.535156 6.023438 -144.039062 7.390625 -145.40625 C 12.867188 -150.46875 16.976562 -154.160156 19.71875 -156.484375 C 22.457031 -158.816406 24.507812 -160.328125 25.875 -161.015625 C 27.25 -161.703125 28.617188 -162.046875 29.984375 -162.046875 Z M 29.984375 -162.046875 "/></g></g></g><g fill="#000000" fill-opacity="1"><g transform="translate(98.660404, 207.152612)"><g><path d="M 4.515625 -139.65625 C 7.253906 -139.65625 9.171875 -138.96875 10.265625 -137.59375 C 11.359375 -136.226562 12.488281 -134.378906 13.65625 -132.046875 C 14.820312 -129.722656 16.632812 -127.191406 19.09375 -124.453125 C 23.476562 -119.796875 28.613281 -115.207031 34.5 -110.6875 C 40.382812 -106.175781 46.578125 -101.9375 53.078125 -97.96875 C 59.585938 -94 65.890625 -90.503906 71.984375 -87.484375 C 78.078125 -84.472656 83.519531 -82.078125 88.3125 -80.296875 C 96.800781 -77.285156 103.234375 -74.957031 107.609375 -73.3125 C 111.992188 -71.675781 114.1875 -69.007812 114.1875 -65.3125 C 114.1875 -62.15625 111.820312 -58.796875 107.09375 -55.234375 C 102.375 -51.679688 95.664062 -48.296875 86.96875 -45.078125 C 78.28125 -41.859375 68.046875 -39.15625 56.265625 -36.96875 C 73.660156 -29.03125 88.347656 -22.660156 100.328125 -17.859375 C 112.304688 -13.066406 122.128906 -9.40625 129.796875 -6.875 C 137.460938 -4.34375 143.382812 -2.492188 147.5625 -1.328125 C 151.738281 -0.171875 154.613281 0.78125 156.1875 1.53125 C 157.757812 2.289062 158.546875 3.285156 158.546875 4.515625 C 158.546875 6.023438 157.414062 7.394531 155.15625 8.625 C 152.894531 9.851562 150.363281 10.84375 147.5625 11.59375 C 144.757812 12.351562 142.46875 12.734375 140.6875 12.734375 C 139.175781 12.734375 137.050781 12.59375 134.3125 12.3125 C 131.570312 12.039062 127.835938 11.320312 123.109375 10.15625 C 118.390625 9 112.265625 7.117188 104.734375 4.515625 C 97.210938 1.910156 87.9375 -1.710938 76.90625 -6.359375 C 65.882812 -11.015625 52.640625 -16.972656 37.171875 -24.234375 C 39.910156 -18.347656 42.269531 -14.035156 44.25 -11.296875 C 46.238281 -8.554688 47.882812 -6.773438 49.1875 -5.953125 C 50.488281 -5.128906 51.515625 -4.71875 52.265625 -4.71875 C 53.015625 -4.71875 53.523438 -4.582031 53.796875 -4.3125 C 54.078125 -4.039062 54.21875 -3.082031 54.21875 -1.4375 C 54.21875 -0.207031 53.289062 1.054688 51.4375 2.359375 C 49.59375 3.660156 47.367188 4.820312 44.765625 5.84375 C 42.171875 6.875 39.675781 7.695312 37.28125 8.3125 C 34.882812 8.925781 33.132812 9.234375 32.03125 9.234375 C 29.570312 9.234375 27.210938 8.3125 24.953125 6.46875 C 22.691406 4.625 20.15625 1 17.34375 -4.40625 C 14.539062 -9.820312 11.085938 -17.867188 6.984375 -28.546875 C 1.640625 -42.234375 -2.671875 -70.367188 -5.953125 -112.953125 C -9.378906 -116.378906 -11.671875 -119.117188 -12.828125 -121.171875 C -13.992188 -123.222656 -14.578125 -126.164062 -14.578125 -130 C -14.578125 -132.1875 -13.722656 -133.929688 -12.015625 -135.234375 C -10.304688 -136.535156 -8.253906 -137.492188 -5.859375 -138.109375 C -3.460938 -138.722656 -1.269531 -139.132812 0.71875 -139.34375 C 2.707031 -139.550781 3.972656 -139.65625 4.515625 -139.65625 Z M 20.75 -90.359375 C 21.019531 -87.484375 21.425781 -83.957031 21.96875 -79.78125 C 22.519531 -75.613281 23.238281 -71.269531 24.125 -66.75 C 25.019531 -62.226562 25.976562 -57.945312 27 -53.90625 C 28.03125 -49.875 29.023438 -46.625 29.984375 -44.15625 C 38.609375 -44.707031 46 -45.492188 52.15625 -46.515625 C 58.320312 -47.546875 63.972656 -49.019531 69.109375 -50.9375 C 74.242188 -52.851562 79.476562 -55.382812 84.8125 -58.53125 C 72.5 -62.5 60.96875 -67.117188 50.21875 -72.390625 C 39.46875 -77.660156 29.644531 -83.648438 20.75 -90.359375 Z M 20.75 -90.359375 "/></g></g></g><g fill="#000000" fill-opacity="1"><g transform="translate(212.021886, 207.152612)"><g><path d="M 26.078125 -19.3125 C 27.722656 -19.3125 29.296875 -18.757812 30.796875 -17.65625 C 32.304688 -16.5625 34.566406 -15.429688 37.578125 -14.265625 C 40.597656 -13.109375 45.050781 -12.53125 50.9375 -12.53125 C 69.6875 -12.53125 79.0625 -17.523438 79.0625 -27.515625 C 79.0625 -30.671875 77.488281 -34.09375 74.34375 -37.78125 C 71.195312 -41.476562 66.882812 -45.894531 61.40625 -51.03125 C 55.925781 -56.164062 49.726562 -62.53125 42.8125 -70.125 C 35.90625 -77.726562 28.6875 -87.007812 21.15625 -97.96875 C 21.425781 -96.875 22.039062 -94.507812 23 -90.875 C 23.957031 -87.25 25.117188 -82.9375 26.484375 -77.9375 C 27.859375 -72.9375 29.265625 -67.734375 30.703125 -62.328125 C 32.140625 -56.921875 33.472656 -51.785156 34.703125 -46.921875 C 35.941406 -42.066406 36.96875 -38.0625 37.78125 -34.90625 C 38.601562 -31.757812 39.015625 -29.914062 39.015625 -29.375 C 39.015625 -27.175781 38.019531 -25.867188 36.03125 -25.453125 C 34.050781 -25.046875 31.898438 -24.84375 29.578125 -24.84375 C 28.203125 -24.84375 26.25 -24.945312 23.71875 -25.15625 C 21.1875 -25.363281 18.859375 -25.773438 16.734375 -26.390625 C 14.617188 -27.003906 13.421875 -27.859375 13.140625 -28.953125 C 12.734375 -31.554688 12.082031 -35.425781 11.1875 -40.5625 C 10.300781 -45.695312 9.273438 -51.550781 8.109375 -58.125 C 6.941406 -64.695312 5.675781 -71.472656 4.3125 -78.453125 C 2.945312 -85.429688 1.578125 -92.101562 0.203125 -98.46875 C -1.160156 -104.84375 -2.53125 -110.359375 -3.90625 -115.015625 C -4.3125 -115.285156 -5.0625 -116.101562 -6.15625 -117.46875 C -7.25 -118.84375 -8.3125 -120.421875 -9.34375 -122.203125 C -10.375 -123.984375 -10.890625 -125.625 -10.890625 -127.125 C -10.890625 -129.726562 -9.929688 -131.679688 -8.015625 -132.984375 C -6.097656 -134.285156 -3.703125 -135.207031 -0.828125 -135.75 C 2.046875 -136.300781 4.785156 -136.578125 7.390625 -136.578125 C 11.910156 -136.578125 15.0625 -136.128906 16.84375 -135.234375 C 18.625 -134.347656 19.679688 -133.21875 20.015625 -131.84375 C 20.359375 -130.476562 20.632812 -129.007812 20.84375 -127.4375 C 21.050781 -125.863281 21.976562 -124.390625 23.625 -123.015625 C 30.738281 -112.890625 38.195312 -103.75 46 -95.59375 C 53.800781 -87.445312 61.363281 -80.15625 68.6875 -73.71875 C 76.019531 -67.289062 82.660156 -61.441406 88.609375 -56.171875 C 94.566406 -50.898438 99.328125 -46.070312 102.890625 -41.6875 C 106.453125 -37.3125 108.234375 -33.132812 108.234375 -29.15625 C 108.234375 -24.09375 106.519531 -19.816406 103.09375 -16.328125 C 99.675781 -12.835938 95.773438 -9.925781 91.390625 -7.59375 C 87.003906 -5.269531 81.113281 -2.976562 73.71875 -0.71875 C 66.332031 1.539062 57.847656 2.671875 48.265625 2.671875 C 38.679688 2.671875 31.082031 1.8125 25.46875 0.09375 C 19.851562 -1.613281 15.847656 -3.457031 13.453125 -5.4375 C 11.054688 -7.425781 9.859375 -8.898438 9.859375 -9.859375 C 9.859375 -11.910156 10.882812 -13.617188 12.9375 -14.984375 C 14.988281 -16.359375 17.316406 -17.421875 19.921875 -18.171875 C 22.523438 -18.929688 24.578125 -19.3125 26.078125 -19.3125 Z M 26.078125 -19.3125 "/></g></g></g><g fill="#000000" fill-opacity="1"><g transform="translate(311.007804, 207.152612)"><g><path d="M 0 -2.671875 C -0.269531 -4.859375 -0.507812 -8.859375 -0.71875 -14.671875 C -0.925781 -20.492188 -1.097656 -27.34375 -1.234375 -35.21875 C -1.367188 -43.09375 -1.46875 -51.273438 -1.53125 -59.765625 C -1.601562 -68.253906 -1.640625 -76.265625 -1.640625 -83.796875 C -1.640625 -91.328125 -1.640625 -97.554688 -1.640625 -102.484375 C -1.640625 -111.515625 -0.988281 -118.5625 0.3125 -123.625 C 1.613281 -128.695312 5.207031 -131.234375 11.09375 -131.234375 C 12.320312 -131.234375 13.585938 -130.375 14.890625 -128.65625 C 16.191406 -126.945312 17.734375 -124.519531 19.515625 -121.375 C 24.304688 -112.882812 30.328125 -103.847656 37.578125 -94.265625 C 44.835938 -84.679688 52.710938 -74.992188 61.203125 -65.203125 C 69.691406 -55.410156 78.179688 -45.789062 86.671875 -36.34375 C 88.859375 -34.019531 91.113281 -31.660156 93.4375 -29.265625 C 95.769531 -26.867188 97.789062 -24.675781 99.5 -22.6875 C 101.21875 -20.707031 102.078125 -19.171875 102.078125 -18.078125 C 102.078125 -15.609375 101.015625 -12.726562 98.890625 -9.4375 C 96.765625 -6.15625 94.296875 -3.28125 91.484375 -0.8125 C 88.679688 1.644531 86.1875 2.875 84 2.875 C 83.863281 2.875 82.117188 2.015625 78.765625 0.296875 C 75.410156 -1.410156 71.164062 -3.53125 66.03125 -6.0625 C 60.894531 -8.59375 55.453125 -11.226562 49.703125 -13.96875 C 43.953125 -16.707031 38.578125 -19.132812 33.578125 -21.25 C 28.578125 -23.375 24.640625 -24.78125 21.765625 -25.46875 C 21.765625 -16.84375 20.632812 -9.992188 18.375 -4.921875 C 16.125 0.140625 11.503906 2.671875 4.515625 2.671875 C 3.148438 2.671875 2.125 2.125 1.4375 1.03125 C 0.75 -0.0625 0.269531 -1.296875 0 -2.671875 Z M 18.484375 -87.90625 C 18.753906 -82.007812 18.957031 -77.039062 19.09375 -73 C 19.238281 -68.96875 19.445312 -65.035156 19.71875 -61.203125 C 19.988281 -57.367188 20.332031 -52.710938 20.75 -47.234375 C 25.539062 -46.410156 32.144531 -44.253906 40.5625 -40.765625 C 48.976562 -37.273438 58.800781 -32.378906 70.03125 -26.078125 C 64.28125 -31.285156 58.050781 -37.175781 51.34375 -43.75 C 44.632812 -50.320312 38.335938 -57.367188 32.453125 -64.890625 C 26.566406 -72.421875 21.910156 -80.09375 18.484375 -87.90625 Z M 18.484375 -87.90625 "/></g></g></g><g fill="#000000" fill-opacity="1"><g transform="translate(398.287935, 207.152612)"><g><path d="M 61.609375 -11.90625 C 64.765625 -11.90625 67.226562 -12.96875 69 -15.09375 C 70.78125 -17.21875 72.046875 -19.785156 72.796875 -22.796875 C 73.554688 -25.804688 73.9375 -28.613281 73.9375 -31.21875 C 73.9375 -36.832031 72.460938 -42.476562 69.515625 -48.15625 C 66.578125 -53.84375 63.050781 -58.804688 58.9375 -63.046875 C 57.300781 -64.828125 55.316406 -66.265625 52.984375 -67.359375 C 50.660156 -68.453125 48.609375 -69.785156 46.828125 -71.359375 C 45.046875 -72.941406 44.15625 -75.238281 44.15625 -78.25 C 44.15625 -80.988281 46.207031 -82.664062 50.3125 -83.28125 C 54.425781 -83.894531 60.039062 -84.75 67.15625 -85.84375 C 69.488281 -85.84375 72.019531 -85.125 74.75 -83.6875 C 77.488281 -82.25 80.84375 -81.53125 84.8125 -81.53125 C 89.75 -81.53125 93.582031 -81.703125 96.3125 -82.046875 C 99.050781 -82.390625 101.722656 -82.5625 104.328125 -82.5625 C 105.703125 -82.5625 106.726562 -82.320312 107.40625 -81.84375 C 108.09375 -81.363281 108.4375 -80.164062 108.4375 -78.25 C 108.4375 -76.332031 108.128906 -74.378906 107.515625 -72.390625 C 106.898438 -70.410156 105.972656 -69.210938 104.734375 -68.796875 C 102.003906 -67.703125 98.6875 -66.847656 94.78125 -66.234375 C 90.875 -65.617188 87.210938 -65.3125 83.796875 -65.3125 C 87.628906 -62.707031 91.015625 -58.664062 93.953125 -53.1875 C 96.898438 -47.71875 98.375 -41.96875 98.375 -35.9375 C 98.375 -28.269531 96.113281 -21.390625 91.59375 -15.296875 C 87.070312 -9.203125 81.179688 -4.410156 73.921875 -0.921875 C 66.671875 2.566406 58.867188 4.3125 50.515625 4.3125 C 41.347656 4.3125 33.410156 2.191406 26.703125 -2.046875 C 19.992188 -6.296875 14.445312 -11.875 10.0625 -18.78125 C 5.675781 -25.695312 2.421875 -33.226562 0.296875 -41.375 C -1.816406 -49.53125 -2.875 -57.507812 -2.875 -65.3125 C -2.875 -73.519531 -1.644531 -81.59375 0.8125 -89.53125 C 3.28125 -97.476562 6.875 -104.632812 11.59375 -111 C 16.320312 -117.375 22.070312 -122.476562 28.84375 -126.3125 C 35.625 -130.144531 43.328125 -132.0625 51.953125 -132.0625 C 53.460938 -132.0625 54.898438 -131.851562 56.265625 -131.4375 C 57.640625 -131.03125 58.328125 -130.003906 58.328125 -128.359375 C 58.328125 -125.890625 57.609375 -124.109375 56.171875 -123.015625 C 54.734375 -121.921875 52.953125 -121.203125 50.828125 -120.859375 C 48.703125 -120.515625 46.613281 -120.238281 44.5625 -120.03125 C 42.507812 -119.832031 40.800781 -119.390625 39.4375 -118.703125 C 34.5 -116.515625 30.695312 -113.265625 28.03125 -108.953125 C 25.363281 -104.640625 23.515625 -99.8125 22.484375 -94.46875 C 21.460938 -89.132812 20.953125 -83.660156 20.953125 -78.046875 C 20.953125 -76.398438 21.117188 -73.660156 21.453125 -69.828125 C 21.796875 -65.992188 22.410156 -61.578125 23.296875 -56.578125 C 24.191406 -51.578125 25.5625 -46.472656 27.40625 -41.265625 C 29.257812 -36.066406 31.65625 -31.242188 34.59375 -26.796875 C 37.539062 -22.347656 41.238281 -18.753906 45.6875 -16.015625 C 50.144531 -13.273438 55.453125 -11.90625 61.609375 -11.90625 Z M 61.609375 -11.90625 "/></g></g></g><g fill="#000000" fill-opacity="1"><g transform="translate(497.479201, 207.152612)"><g><path d="M 37.171875 -128.5625 C 39.640625 -128.425781 41.691406 -127.332031 43.328125 -125.28125 C 48.671875 -124.59375 53.769531 -122.535156 58.625 -119.109375 C 63.488281 -115.691406 68.007812 -111.347656 72.1875 -106.078125 C 76.363281 -100.804688 79.988281 -95.085938 83.0625 -88.921875 C 86.144531 -82.765625 88.539062 -76.535156 90.25 -70.234375 C 91.96875 -63.941406 92.828125 -58.125 92.828125 -52.78125 C 92.828125 -46.34375 91.660156 -39.835938 89.328125 -33.265625 C 87.003906 -26.691406 83.6875 -20.664062 79.375 -15.1875 C 75.0625 -9.71875 69.859375 -5.335938 63.765625 -2.046875 C 57.671875 1.234375 50.859375 2.875 43.328125 2.875 C 34.984375 2.875 27.96875 0.957031 22.28125 -2.875 C 16.601562 -6.707031 12.015625 -11.738281 8.515625 -17.96875 C 5.023438 -24.195312 2.492188 -31.007812 0.921875 -38.40625 C -0.648438 -45.800781 -1.4375 -53.125 -1.4375 -60.375 C -1.4375 -65.582031 -0.988281 -71.234375 -0.09375 -77.328125 C 0.789062 -83.421875 2.191406 -89.476562 4.109375 -95.5 C 6.023438 -101.519531 8.488281 -107.03125 11.5 -112.03125 C 14.507812 -117.03125 18.132812 -121.035156 22.375 -124.046875 C 26.625 -127.054688 31.554688 -128.5625 37.171875 -128.5625 Z M 30.390625 -107.203125 C 29.296875 -107.203125 27.925781 -106.347656 26.28125 -104.640625 C 24.644531 -102.929688 23.207031 -99.847656 21.96875 -95.390625 C 20.738281 -90.941406 20.125 -84.613281 20.125 -76.40625 C 20.125 -69.550781 20.804688 -62.800781 22.171875 -56.15625 C 23.546875 -49.519531 25.703125 -43.53125 28.640625 -38.1875 C 31.585938 -32.851562 35.351562 -28.578125 39.9375 -25.359375 C 44.53125 -22.140625 50.113281 -20.53125 56.6875 -20.53125 C 60.101562 -20.53125 62.734375 -21.523438 64.578125 -23.515625 C 66.429688 -25.503906 67.734375 -28.003906 68.484375 -31.015625 C 69.242188 -34.023438 69.625 -37.035156 69.625 -40.046875 C 69.625 -45.523438 68.765625 -51.34375 67.046875 -57.5 C 65.335938 -63.664062 63.046875 -69.691406 60.171875 -75.578125 C 57.296875 -81.460938 54.113281 -86.765625 50.625 -91.484375 C 47.132812 -96.210938 43.640625 -100.015625 40.140625 -102.890625 C 36.648438 -105.765625 33.398438 -107.203125 30.390625 -107.203125 Z M 30.390625 -107.203125 "/></g></g></g><g fill="#000000" fill-opacity="1"><g transform="translate(592.768532, 207.152612)"><g/></g></g><g fill="#000000" fill-opacity="1"><g transform="translate(639.797095, 207.152612)"><g><path d="M -5.75 -138.625 C -4.101562 -138.625 -3.007812 -138.351562 -2.46875 -137.8125 C 12.050781 -124.113281 29.710938 -113.429688 50.515625 -105.765625 C 71.878906 -98.097656 91.867188 -93.785156 110.484375 -92.828125 C 108.566406 -88.171875 105.519531 -84.269531 101.34375 -81.125 C 97.175781 -77.976562 90.78125 -76.40625 82.15625 -76.40625 C 71.195312 -76.40625 59.898438 -78.082031 48.265625 -81.4375 C 36.628906 -84.789062 25.742188 -89.679688 15.609375 -96.109375 C 17.929688 -91.734375 20.050781 -87.148438 21.96875 -82.359375 C 23.882812 -77.566406 25.523438 -73.179688 26.890625 -69.203125 C 28.265625 -65.234375 29.226562 -62.359375 29.78125 -60.578125 C 32.925781 -61.535156 35.832031 -62.148438 38.5 -62.421875 C 41.175781 -62.703125 43.539062 -62.84375 45.59375 -62.84375 C 46.550781 -62.84375 48.601562 -62.566406 51.75 -62.015625 C 54.90625 -61.472656 58.257812 -60.789062 61.8125 -59.96875 C 65.375 -59.144531 68.179688 -58.390625 70.234375 -57.703125 C 72.015625 -57.296875 73.488281 -56.546875 74.65625 -55.453125 C 75.820312 -54.359375 76.40625 -52.851562 76.40625 -50.9375 C 76.40625 -48.738281 75.445312 -46.921875 73.53125 -45.484375 C 71.613281 -44.046875 69.25 -42.953125 66.4375 -42.203125 C 63.632812 -41.453125 60.863281 -40.90625 58.125 -40.5625 C 55.382812 -40.21875 53.191406 -40.046875 51.546875 -40.046875 C 48.941406 -40.046875 46.375 -40.21875 43.84375 -40.5625 C 41.3125 -40.90625 38.0625 -41.488281 34.09375 -42.3125 C 36.414062 -37.238281 38.296875 -32.269531 39.734375 -27.40625 C 41.171875 -22.550781 42.195312 -18.445312 42.8125 -15.09375 C 43.4375 -11.738281 43.75 -9.71875 43.75 -9.03125 C 43.75 -7.53125 42.550781 -5.507812 40.15625 -2.96875 C 37.757812 -0.4375 34.953125 1.785156 31.734375 3.703125 C 28.515625 5.617188 25.601562 6.578125 23 6.578125 C 21.5 6.578125 17.664062 -7.113281 11.5 -34.5 C 8.21875 -48.332031 3.738281 -63.222656 -1.9375 -79.171875 C -7.625 -95.117188 -14.644531 -112.0625 -23 -130 C -23.132812 -130.269531 -23.203125 -130.613281 -23.203125 -131.03125 C -23.203125 -131.988281 -22.207031 -133.046875 -20.21875 -134.203125 C -18.238281 -135.367188 -15.878906 -136.394531 -13.140625 -137.28125 C -10.398438 -138.175781 -7.9375 -138.625 -5.75 -138.625 Z M -5.75 -138.625 "/></g></g></g><g fill="#000000" fill-opacity="1"><g transform="translate(739.604503, 207.152612)"><g><path d="M 11.5 -128.15625 C 13.28125 -128.15625 14.546875 -126.890625 15.296875 -124.359375 C 16.054688 -121.828125 16.503906 -119.085938 16.640625 -116.140625 C 16.773438 -113.191406 16.84375 -111.101562 16.84375 -109.875 C 19.300781 -95.226562 22.070312 -81.8125 25.15625 -69.625 C 28.238281 -57.4375 31.113281 -47.300781 33.78125 -39.21875 C 36.445312 -31.144531 38.332031 -26.015625 39.4375 -23.828125 C 40.9375 -21.085938 42.539062 -18.3125 44.25 -15.5 C 45.96875 -12.695312 47.441406 -10.300781 48.671875 -8.3125 C 49.898438 -6.332031 50.515625 -4.929688 50.515625 -4.109375 C 50.515625 -2.460938 49.144531 -1.160156 46.40625 -0.203125 C 43.675781 0.753906 40.359375 1.472656 36.453125 1.953125 C 32.546875 2.429688 28.882812 2.671875 25.46875 2.671875 C 22.863281 2.117188 20.394531 0 18.0625 -3.6875 C 15.738281 -7.382812 13.484375 -12.070312 11.296875 -17.75 C 9.109375 -23.4375 7.085938 -29.632812 5.234375 -36.34375 C 3.390625 -43.0625 1.675781 -49.804688 0.09375 -56.578125 C -1.476562 -63.359375 -2.878906 -69.722656 -4.109375 -75.671875 C -5.335938 -81.628906 -6.363281 -86.597656 -7.1875 -90.578125 C -8.144531 -94.546875 -8.929688 -98.6875 -9.546875 -103 C -10.160156 -107.3125 -10.675781 -111.65625 -11.09375 -116.03125 C -11.09375 -117.8125 -9.960938 -119.625 -7.703125 -121.46875 C -5.441406 -123.320312 -2.566406 -124.898438 0.921875 -126.203125 C 4.410156 -127.503906 7.9375 -128.15625 11.5 -128.15625 Z M 11.5 -128.15625 "/></g></g></g><g fill="#000000" fill-opacity="1"><g transform="translate(776.775521, 207.152612)"><g><path d="M 6.984375 -128.765625 C 12.179688 -128.765625 15.84375 -128.285156 17.96875 -127.328125 C 20.09375 -126.367188 21.15625 -124.519531 21.15625 -121.78125 C 21.15625 -119.726562 21.015625 -117.742188 20.734375 -115.828125 C 20.460938 -113.910156 20.328125 -111.859375 20.328125 -109.671875 C 20.460938 -107.753906 20.769531 -104.054688 21.25 -98.578125 C 21.726562 -93.097656 22.378906 -86.59375 23.203125 -79.0625 C 24.023438 -71.539062 25.050781 -63.804688 26.28125 -55.859375 C 27.519531 -47.921875 28.992188 -40.523438 30.703125 -33.671875 C 32.410156 -26.828125 34.289062 -21.28125 36.34375 -17.03125 C 38.40625 -12.789062 40.734375 -10.671875 43.328125 -10.671875 C 45.109375 -10.671875 47.503906 -11.253906 50.515625 -12.421875 C 53.535156 -13.585938 56.515625 -14.890625 59.453125 -16.328125 C 62.398438 -17.765625 64.488281 -18.757812 65.71875 -19.3125 C 69.6875 -21.226562 73.894531 -23.242188 78.34375 -25.359375 C 82.800781 -27.484375 86.84375 -29.332031 90.46875 -30.90625 C 94.09375 -32.476562 96.59375 -33.265625 97.96875 -33.265625 C 99.46875 -33.265625 100.96875 -32.851562 102.46875 -32.03125 C 103.976562 -31.21875 104.734375 -29.921875 104.734375 -28.140625 C 104.734375 -26.628906 104.253906 -25.289062 103.296875 -24.125 C 102.335938 -22.96875 101.3125 -22.046875 100.21875 -21.359375 C 94.195312 -17.390625 88.648438 -14.066406 83.578125 -11.390625 C 78.515625 -8.722656 73.519531 -6.328125 68.59375 -4.203125 C 63.664062 -2.085938 58.257812 0.132812 52.375 2.46875 C 48.945312 3.695312 45.625 4.648438 42.40625 5.328125 C 39.1875 6.015625 35.800781 6.359375 32.25 6.359375 C 27.457031 6.359375 23.242188 4.613281 19.609375 1.125 C 15.984375 -2.363281 12.90625 -7.050781 10.375 -12.9375 C 7.84375 -18.820312 5.71875 -25.394531 4 -32.65625 C 2.289062 -39.914062 0.925781 -47.34375 -0.09375 -54.9375 C -1.125 -62.539062 -1.878906 -69.832031 -2.359375 -76.8125 C -2.835938 -83.789062 -3.144531 -89.914062 -3.28125 -95.1875 C -3.414062 -100.457031 -3.484375 -104.328125 -3.484375 -106.796875 C -3.484375 -112.546875 -2.800781 -117.644531 -1.4375 -122.09375 C -0.0703125 -126.539062 2.734375 -128.765625 6.984375 -128.765625 Z M 6.984375 -128.765625 "/></g></g></g><g fill="#000000" fill-opacity="1"><g transform="translate(859.332246, 207.152612)"><g><path d="M 67.78125 -130 C 71.46875 -130 74.472656 -128.492188 76.796875 -125.484375 C 79.128906 -122.472656 81.597656 -117.679688 84.203125 -111.109375 C 86.804688 -104.535156 90.4375 -95.804688 95.09375 -84.921875 C 99.75 -74.035156 106.25 -60.722656 114.59375 -44.984375 C 119.382812 -35.941406 123.253906 -28.75 126.203125 -23.40625 C 129.148438 -18.070312 131.75 -14.132812 134 -11.59375 C 136.257812 -9.0625 138.550781 -7.382812 140.875 -6.5625 C 143.207031 -5.75 146.15625 -5.34375 149.71875 -5.34375 C 149.988281 -5.34375 150.363281 -5.375 150.84375 -5.4375 C 151.320312 -5.507812 151.769531 -5.546875 152.1875 -5.546875 C 152.863281 -5.273438 153.203125 -4.726562 153.203125 -3.90625 C 153.203125 -1.707031 152.003906 0.550781 149.609375 2.875 C 147.210938 5.195312 144.269531 7.179688 140.78125 8.828125 C 137.289062 10.472656 133.90625 11.296875 130.625 11.296875 C 122.269531 11.296875 113.914062 5.238281 105.5625 -6.875 C 97.207031 -19 87.894531 -37.859375 77.625 -63.453125 C 77.21875 -58.117188 76.738281 -54.148438 76.1875 -51.546875 C 75.644531 -48.941406 74.992188 -47.125 74.234375 -46.09375 C 73.484375 -45.070312 72.5625 -44.148438 71.46875 -43.328125 C 70.101562 -42.367188 68.628906 -41.582031 67.046875 -40.96875 C 65.472656 -40.351562 63.726562 -40.046875 61.8125 -40.046875 C 54.28125 -40.046875 47.503906 -41.992188 41.484375 -45.890625 C 35.460938 -49.796875 29.644531 -54.96875 24.03125 -61.40625 C 25.257812 -57.84375 26.554688 -54.109375 27.921875 -50.203125 C 29.296875 -46.304688 30.5625 -42.78125 31.71875 -39.625 C 32.882812 -36.476562 33.742188 -34.222656 34.296875 -32.859375 C 35.117188 -30.941406 36.109375 -28.988281 37.265625 -27 C 38.429688 -25.019531 39.15625 -23.273438 39.4375 -21.765625 C 39.019531 -19.304688 37.882812 -16.707031 36.03125 -13.96875 C 34.1875 -11.226562 31.894531 -8.863281 29.15625 -6.875 C 26.425781 -4.894531 23.484375 -3.90625 20.328125 -3.90625 C 16.773438 -3.90625 14.515625 -4.929688 13.546875 -6.984375 C 12.585938 -9.035156 11.972656 -11.296875 11.703125 -13.765625 C 11.566406 -13.765625 10.878906 -15.679688 9.640625 -19.515625 C 8.410156 -23.347656 6.90625 -28.3125 5.125 -34.40625 C 3.351562 -40.5 1.441406 -46.96875 -0.609375 -53.8125 C -2.671875 -60.65625 -4.585938 -67.125 -6.359375 -73.21875 C -8.140625 -79.3125 -9.578125 -84.273438 -10.671875 -88.109375 C -11.773438 -91.941406 -12.328125 -93.859375 -12.328125 -93.859375 C -12.597656 -94.953125 -13.144531 -96.832031 -13.96875 -99.5 C -14.789062 -102.175781 -15.507812 -104.742188 -16.125 -107.203125 C -16.738281 -109.671875 -17.046875 -111.039062 -17.046875 -111.3125 C -17.046875 -113.226562 -16.15625 -114.800781 -14.375 -116.03125 C -12.59375 -117.269531 -10.4375 -118.226562 -7.90625 -118.90625 C -5.375 -119.59375 -2.976562 -120.109375 -0.71875 -120.453125 C 1.539062 -120.796875 3.148438 -120.96875 4.109375 -120.96875 C 4.515625 -120.96875 5.398438 -120.007812 6.765625 -118.09375 C 8.140625 -116.175781 9.648438 -113.914062 11.296875 -111.3125 C 12.941406 -108.707031 14.515625 -106.238281 16.015625 -103.90625 C 17.523438 -101.582031 18.550781 -100.015625 19.09375 -99.203125 C 25.800781 -90.160156 31.722656 -82.898438 36.859375 -77.421875 C 41.992188 -71.953125 46.546875 -67.847656 50.515625 -65.109375 C 54.492188 -62.367188 57.921875 -60.453125 60.796875 -59.359375 C 60.109375 -76.054688 58.835938 -89.8125 56.984375 -100.625 C 55.140625 -111.445312 53.460938 -119.050781 51.953125 -123.4375 L 51.953125 -123.640625 C 51.953125 -126.785156 53.5625 -128.628906 56.78125 -129.171875 C 60 -129.722656 63.664062 -130 67.78125 -130 Z M 67.78125 -130 "/></g></g></g><g fill="#000000" fill-opacity="1"><g transform="translate(978.033194, 207.152612)"><g><path d="M 10.0625 -9.65625 C 10.0625 -12.113281 11.257812 -14.367188 13.65625 -16.421875 C 16.050781 -18.484375 18.789062 -20.128906 21.875 -21.359375 C 24.957031 -22.585938 27.523438 -23.203125 29.578125 -23.203125 C 29.847656 -23.203125 30.257812 -23.066406 30.8125 -22.796875 C 30.8125 -19.234375 31.457031 -16.628906 32.75 -14.984375 C 34.050781 -13.347656 36.273438 -12.359375 39.421875 -12.015625 C 42.578125 -11.671875 46.894531 -11.5 52.375 -11.5 C 54.695312 -11.5 57.46875 -11.597656 60.6875 -11.796875 C 63.90625 -12.003906 67.050781 -12.453125 70.125 -13.140625 C 73.207031 -13.828125 75.773438 -14.921875 77.828125 -16.421875 C 79.890625 -17.929688 80.921875 -19.988281 80.921875 -22.59375 C 80.921875 -22.863281 80.507812 -23.238281 79.6875 -23.71875 C 78.863281 -24.195312 77.082031 -25.019531 74.34375 -26.1875 C 71.601562 -27.351562 67.359375 -28.894531 61.609375 -30.8125 C 55.859375 -32.726562 47.988281 -35.191406 38 -38.203125 C 35.53125 -39.023438 32.273438 -40.289062 28.234375 -42 C 24.203125 -43.707031 20.128906 -46.269531 16.015625 -49.6875 C 11.910156 -53.113281 8.453125 -57.738281 5.640625 -63.5625 C 2.835938 -69.382812 1.4375 -76.742188 1.4375 -85.640625 C 1.4375 -91.117188 2.664062 -96.113281 5.125 -100.625 C 7.59375 -105.144531 10.8125 -109.046875 14.78125 -112.328125 C 18.757812 -115.617188 23.070312 -118.15625 27.71875 -119.9375 C 32.375 -121.71875 36.828125 -122.609375 41.078125 -122.609375 C 45.867188 -122.609375 51.550781 -121.375 58.125 -118.90625 L 58.125 -133.90625 C 58.394531 -137.46875 59.25 -140.515625 60.6875 -143.046875 C 62.125 -145.578125 65.238281 -146.84375 70.03125 -146.84375 L 70.859375 -146.84375 C 74.554688 -146.84375 76.40625 -146.363281 76.40625 -145.40625 C 76.40625 -144.851562 76.367188 -143.789062 76.296875 -142.21875 C 76.222656 -140.644531 76.1875 -138.554688 76.1875 -135.953125 C 76.1875 -126.785156 76.5625 -119.050781 77.3125 -112.75 C 78.070312 -106.445312 78.960938 -101.175781 79.984375 -96.9375 C 81.015625 -92.695312 81.90625 -89 82.65625 -85.84375 C 83.414062 -82.695312 83.796875 -79.550781 83.796875 -76.40625 C 83.796875 -73.800781 83.519531 -71.609375 82.96875 -69.828125 C 82.425781 -68.046875 80.957031 -66.570312 78.5625 -65.40625 C 76.164062 -64.25 72.226562 -63.191406 66.75 -62.234375 C 64.144531 -62.234375 62.222656 -63.394531 60.984375 -65.71875 C 59.753906 -68.050781 58.796875 -71.0625 58.109375 -74.75 C 57.429688 -78.445312 56.785156 -82.347656 56.171875 -86.453125 C 55.554688 -90.566406 54.628906 -94.472656 53.390625 -98.171875 C 52.160156 -101.867188 50.3125 -104.878906 47.84375 -107.203125 C 45.382812 -109.535156 42.03125 -110.703125 37.78125 -110.703125 C 34.90625 -110.703125 32.613281 -109.429688 30.90625 -106.890625 C 29.195312 -104.359375 28 -101.445312 27.3125 -98.15625 C 26.625 -94.875 26.28125 -92.140625 26.28125 -89.953125 C 26.28125 -83.242188 27.546875 -77.734375 30.078125 -73.421875 C 32.617188 -69.109375 35.664062 -65.582031 39.21875 -62.84375 C 42.78125 -60.101562 46.066406 -57.84375 49.078125 -56.0625 C 50.585938 -55.238281 53.050781 -54.28125 56.46875 -53.1875 C 59.894531 -52.09375 63.695312 -51 67.875 -49.90625 C 72.050781 -48.8125 76.15625 -47.75 80.1875 -46.71875 C 84.226562 -45.695312 87.753906 -44.804688 90.765625 -44.046875 C 93.785156 -43.296875 95.707031 -42.785156 96.53125 -42.515625 C 104.0625 -39.503906 107.828125 -35.941406 107.828125 -31.828125 C 107.828125 -25.804688 106.007812 -20.640625 102.375 -16.328125 C 98.75 -12.015625 94.023438 -8.453125 88.203125 -5.640625 C 82.390625 -2.835938 76.226562 -0.582031 69.71875 1.125 C 63.21875 2.84375 57.023438 4.039062 51.140625 4.71875 C 45.253906 5.40625 40.394531 5.75 36.5625 5.75 C 33.132812 5.75 29.332031 5.441406 25.15625 4.828125 C 20.976562 4.210938 17.414062 2.804688 14.46875 0.609375 C 11.53125 -1.578125 10.0625 -5 10.0625 -9.65625 Z M 10.0625 -9.65625 "/></g></g></g></g></g></g></svg>